HIERARCHY
ROOT Hips
{
    OFFSET 0.000000 0.000000 0.000000
    CHANNELS 6 Xposition Yposition Zposition Zrotation Xrotation Yrotation
    JOINT Spine
    {
        OFFSET -0.000000 14.517291 0.000000
        CHANNELS 3 Zrotation Xrotation Yrotation
        JOINT Spine1
        {
            OFFSET -0.000000 37.558300 0.000000
            CHANNELS 3 Zrotation Xrotation Yrotation
            JOINT Neck
            {
                OFFSET -0.000000 37.404057 3.400369
                CHANNELS 3 Zrotation Xrotation Yrotation
                JOINT Head
                {
                    OFFSET -0.000000 24.785618 -3.540803
                    CHANNELS 3 Zrotation Xrotation Yrotation
                    End Site
                    {
                        OFFSET -0.000000 35.408028 0.000000
                    }
                }
            }
            JOINT LeftShoulder
            {
                OFFSET 6.992933 33.973492 -0.192664
                CHANNELS 3 Zrotation Xrotation Yrotation
                JOINT LeftArm
                {
                    OFFSET 21.527611 0.000000 0.000000
                    CHANNELS 3 Zrotation Xrotation Yrotation
                    JOINT LeftForeArm
                    {
                        OFFSET 56.353916 0.000000 0.000000
                        CHANNELS 3 Zrotation Xrotation Yrotation
                        JOINT LeftHand
                        {
                            OFFSET 47.774071 0.000000 0.000000
                            CHANNELS 3 Zrotation Xrotation Yrotation
                            End Site
                            {
                                OFFSET 26.556021 0.000000 0.000000
                            }
                        }
                    }
                }
            }
            JOINT RightShoulder
            {
                OFFSET -7.065357 33.973492 -0.192664
                CHANNELS 3 Zrotation Xrotation Yrotation
                JOINT RightArm
                {
                    OFFSET -21.527611 0.000000 0.000000
                    CHANNELS 3 Zrotation Xrotation Yrotation
                    JOINT RightForeArm
                    {
                        OFFSET -56.353916 0.000000 0.000000
                        CHANNELS 3 Zrotation Xrotation Yrotation
                        JOINT RightHand
                        {
                            OFFSET -47.774071 0.000000 0.000000
                            CHANNELS 3 Zrotation Xrotation Yrotation
                            End Site
                            {
                                OFFSET -26.556021 0.000000 0.000000
                            }
                        }
                    }
                }
            }
        }
    }
    JOINT LeftUpLeg
    {
        OFFSET 17.704014 0.000000 0.000000
        CHANNELS 3 Zrotation Xrotation Yrotation
        JOINT LeftLeg
        {
            OFFSET -0.000000 -81.181816 0.000000
            CHANNELS 3 Zrotation Xrotation Yrotation
            JOINT LeftFoot
            {
                OFFSET -0.000000 -62.821102 0.000000
                CHANNELS 3 Zrotation Xrotation Yrotation
                JOINT LeftToeBase
                {
                    OFFSET -0.000000 -11.507608 26.556021
                    CHANNELS 3 Zrotation Xrotation Yrotation
                    End Site
                    {
                        OFFSET -0.000000 0.000000 7.081605
                    }
                }
            }
        }
    }
    JOINT RightUpLeg
    {
        OFFSET -17.704014 0.000000 0.000000
        CHANNELS 3 Zrotation Xrotation Yrotation
        JOINT RightLeg
        {
            OFFSET -0.000000 -81.181816 0.000000
            CHANNELS 3 Zrotation Xrotation Yrotation
            JOINT RightFoot
            {
                OFFSET -0.000000 -62.821102 0.000000
                CHANNELS 3 Zrotation Xrotation Yrotation
                JOINT RightToeBase
                {
                    OFFSET -0.000000 -11.507608 26.556021
                    CHANNELS 3 Zrotation Xrotation Yrotation
                    End Site
                    {
                        OFFSET -0.000000 0.000000 7.081605
                    }
                }
            }
        }
    }
}
MOTION
Frames:    9
Frame Time:    0.008333
-0.943795    156.847092    -119.217873    -7.674317    -7.317636    33.992764    1.230987    0.943007    1.354128    -3.037792    0.531878    0.469805    8.179999    -0.250388    -18.192398    12.928399    0.776147    -18.498613    8.749058    7.730616    -17.613926    -33.725494    20.874676    -48.950718    -7.172768    -8.110786    -116.896530    1.879849    -19.600996    -7.311266    -12.486526    -4.745887    -6.984364    16.287056    -20.353674    45.737179    -14.062671    -16.872473    46.501255    6.115072    -9.287327    31.303982    21.165117    -14.421101    -5.883190    -18.132887    43.003609    -16.256489    8.461019    -24.156445    48.560509    0.000000    0.000000    0.000000    -21.230099    -13.964524    -13.304619    6.686113    16.695526    -14.792602    12.087403    27.145521    -16.795443    0.000000    0.000000    0.000000    
-0.306240    157.084274    -119.576881    -7.762080    -7.337410    33.905182    1.276500    0.859899    1.337298    -3.029848    0.644314    0.466899    8.131968    -0.173059    -18.197653    13.035460    0.768351    -18.476395    8.691953    7.737271    -17.612148    -33.704769    20.805416    -48.932938    -7.229996    -8.045302    -116.824921    1.949993    -19.615763    -7.291719    -12.539982    -4.794941    -6.969406    16.343981    -20.287489    45.838768    -14.095750    -16.930788    46.402317    6.225328    -9.316319    31.315447    20.953810    -14.240973    -5.564001    -17.766560    42.772926    -16.575029    8.563635    -24.000208    48.512287    0.000000    0.000000    0.000000    -20.922308    -14.327316    -13.505512    6.791799    16.555767    -14.639618    12.492464    26.296965    -17.014080    0.000000    0.000000    0.000000    
0.306364    157.334061    -119.927170    -7.868371    -7.366025    33.819118    1.335750    0.800915    1.309955    -3.003130    0.725440    0.459651    8.106617    -0.175805    -18.151539    13.058894    0.831665    -18.428459    8.617597    7.746794    -17.614923    -33.731197    20.744286    -48.889816    -7.271530    -7.960451    -116.767448    1.995738    -19.590233    -7.322999    -12.581446    -4.740020    -6.943126    16.392162    -20.347866    45.943825    -14.028745    -16.956728    46.397545    6.177847    -9.394373    31.164669    20.825428    -14.050205    -5.333883    -17.619959    42.456223    -16.751114    8.698448    -23.760380    48.479393    0.000000    0.000000    0.000000    -20.497108    -14.695174    -13.838661    6.645360    16.401602    -14.554696    12.983015    25.563839    -17.176399    0.000000    0.000000    0.000000    
0.926324    157.573685    -120.271492    -7.933392    -7.393588    33.739716    1.413875    0.809223    1.270520    -3.086650    0.752977    0.447904    8.244732    -0.236878    -18.098267    12.918098    0.910912    -18.425154    8.640391    7.752481    -17.570677    -33.843266    20.695654    -48.898083    -7.358884    -7.818074    -116.734337    2.107809    -19.590000    -7.325542    -12.535024    -4.760235    -6.954257    16.413763    -20.350742    46.075680    -13.973079    -16.939989    46.334129    6.200724    -9.396413    31.296402    20.612354    -13.852264    -5.042174    -17.294647    42.195637    -16.985674    8.759402    -23.556610    48.375908    0.000000    0.000000    0.000000    -20.147230    -15.025028    -14.096881    6.632284    16.236200    -14.796696    13.399607    24.904943    -17.235157    0.000000    0.000000    0.000000    
1.542570    157.792847    -120.605644    -7.980900    -7.386574    33.659420    1.457158    0.789611    1.224691    -3.114461    0.750633    0.432766    8.172607    -0.193704    -18.069672    12.988214    0.996138    -18.381556    8.574294    7.840128    -17.548140    -33.866318    20.692413    -48.909748    -7.345214    -7.893484    -116.730553    2.148630    -19.641153    -7.277749    -12.560777    -4.735876    -6.922290    16.415325    -20.327032    46.181507    -13.904228    -16.974382    46.306095    6.238338    -9.454903    31.298069    20.389595    -13.650928    -4.752499    -17.010838    41.893028    -17.297676    8.899472    -23.341986    48.357536    0.000000    0.000000    0.000000    -19.856579    -15.347237    -14.267399    6.731404    16.038654    -15.159082    13.523085    24.326565    -17.183969    0.000000    0.000000    0.000000    
2.154060    158.012955    -120.921349    -7.998671    -7.394160    33.579834    1.499081    0.800131    1.180636    -3.162539    0.755215    0.418678    8.181983    -0.155170    -18.017895    12.978713    0.996514    -18.327055    8.526662    7.893243    -17.526882    -33.952518    20.678040    -48.896320    -7.312585    -7.915046    -116.733650    2.190410    -19.613731    -7.250907    -12.575171    -4.670612    -6.901352    16.462414    -20.323843    46.259029    -13.865809    -17.289173    45.977375    7.511415    -9.292011    34.110786    20.136190    -13.417429    -4.526873    -16.739178    41.582264    -17.470444    8.972086    -23.135845    48.250214    0.000000    0.000000    0.000000    -19.544029    -15.653183    -14.525465    6.700911    15.885725    -15.377646    13.834291    23.799040    -17.299482    0.000000    0.000000    0.000000    
2.766222    158.210815    -121.237495    -7.985810    -7.367007    33.514008    1.507243    0.790459    1.145775    -3.227686    0.768688    0.407859    8.246678    -0.166839    -17.947596    12.908142    1.029449    -18.276644    8.517035    7.942618    -17.555489    -34.066467    20.691681    -48.893162    -7.224317    -8.013073    -116.731956    2.212651    -19.571085    -7.254405    -12.568524    -4.721492    -6.885406    16.430399    -20.294584    46.321476    -13.737615    -17.235899    45.987465    7.476207    -9.306533    34.029724    19.841587    -13.208244    -4.327242    -16.500790    41.268539    -17.692493    9.059332    -22.942350    48.232029    0.000000    0.000000    0.000000    -19.260208    -15.958579    -14.779939    6.604797    15.684433    -15.967881    13.934841    23.527176    -17.005560    0.000000    0.000000    0.000000    
3.370664    158.397095    -121.534325    -7.943289    -7.378334    33.447884    1.490437    0.857618    1.120780    -3.231210    0.732035    0.398805    8.301265    -0.100150    -17.942556    12.734917    0.999567    -18.293480    8.484879    8.012366    -17.602539    -34.200996    20.740211    -48.933819    -7.284349    -8.135862    -116.717194    2.150409    -19.772745    -7.182693    -12.602040    -4.684238    -6.876719    16.390427    -20.353878    46.442791    -13.632861    -16.846727    46.305046    6.249269    -9.440840    31.232084    19.528097    -12.965849    -4.214420    -16.283300    40.989834    -17.834288    9.161273    -22.737719    48.200443    0.000000    0.000000    0.000000    -19.006092    -16.207235    -14.834897    6.629281    15.470633    -16.508377    13.969181    23.323183    -16.927296    0.000000    0.000000    0.000000    
3.965433    158.556061    -121.826729    -7.911472    -7.347450    33.379757    1.512525    0.877237    1.082967    -3.302704    0.704088    0.386047    8.381616    -0.109999    -17.877684    12.557730    1.021294    -18.263294    8.437632    8.087838    -17.572489    -34.295662    20.745718    -48.936871    -7.127755    -8.193426    -116.768341    2.188636    -19.600294    -7.311604    -12.591114    -4.626235    -6.877279    16.375343    -20.370367    46.523865    -13.549223    -17.104044    46.001766    7.492829    -9.249517    33.946320    19.205301    -12.843066    -4.125394    -16.274649    40.730740    -17.583445    9.274840    -22.429741    48.157001    0.000000    0.000000    0.000000    -18.741806    -16.461067    -15.068195    6.574750    15.192554    -16.848083    13.804790    23.223000    -16.747997    0.000000    0.000000    0.000000    
